<svg width="64" height="64" viewBox="0 0 64 64" xmlns="http://www.w3.org/2000/svg">
  <defs>
    <linearGradient id="tierGradient" x1="0%" y1="0%" x2="100%" y2="100%">
      <stop offset="0%" style="stop-color:#f59e0b;stop-opacity:1" />
      <stop offset="100%" style="stop-color:#d97706;stop-opacity:1" />
    </linearGradient>
  </defs>

  <!-- Background -->
  <circle cx="32" cy="32" r="30" fill="url(#tierGradient)"/>

  <!-- Trophy -->
  <path d="M32 40 L28 32 L28 20 L36 20 L36 32 Z" fill="#fbbf24"/>
  <rect x="26" y="40" width="12" height="4" fill="#d97706"/>
  <rect x="24" y="44" width="16" height="4" fill="#92400e"/>

  <!-- Handles -->
  <path d="M28 24 Q20 24 20 32 Q20 36 24 36" stroke="#fbbf24" stroke-width="2" fill="none"/>
  <path d="M36 24 Q44 24 44 32 Q44 36 40 36" stroke="#fbbf24" stroke-width="2" fill="none"/>

  <!-- Star -->
  <path d="M32 15 L34 19 L38 19 L35 22 L36 26 L32 24 L28 26 L29 22 L26 19 L30 19 Z" fill="white" opacity="0.9"/>
</svg>