<svg width="120" height="120" viewBox="0 0 120 120" xmlns="http://www.w3.org/2000/svg">
  <defs>
    <linearGradient id="holyGradient" x1="0%" y1="0%" x2="100%" y2="100%">
      <stop offset="0%" style="stop-color:#fbbf24;stop-opacity:1" />
      <stop offset="100%" style="stop-color:#f59e0b;stop-opacity:1" />
    </linearGradient>
    <filter id="glow">
      <feGaussianBlur stdDeviation="2" result="coloredBlur"/>
      <feMerge>
        <feMergeNode in="coloredBlur"/>
        <feMergeNode in="SourceGraphic"/>
      </feMerge>
    </filter>
  </defs>

  <!-- Background Circle -->
  <circle cx="60" cy="60" r="55" fill="url(#holyGradient)"/>

  <!-- Character Body -->
  <g fill="white" filter="url(#glow)">
    <!-- Head -->
    <circle cx="60" cy="40" r="15"/>

    <!-- Robe -->
    <path d="M45 55 Q60 50 75 55 L70 95 L50 95 Z"/>
    <rect x="40" y="90" width="40" height="15" rx="2"/>

    <!-- Arms -->
    <rect x="35" y="60" width="8" height="25" rx="2" transform="rotate(-10 39 72)"/>
    <rect x="77" y="60" width="8" height="25" rx="2" transform="rotate(10 81 72)"/>
  </g>

  <!-- Staff -->
  <g>
    <rect x="85" y="40" width="3" height="60" fill="#8b4513"/>
    <circle cx="86.5" cy="35" r="8" fill="#fbbf24" filter="url(#glow)"/>
    <path d="M86.5 27 L88.5 31 L84.5 31 Z" fill="white"/>
  </g>

  <!-- Holy Aura -->
  <circle cx="86.5" cy="35" r="12" fill="none" stroke="#fbbf24" stroke-width="2" opacity="0.5">
    <animate attributeName="r" values="8;15;8" dur="3s" repeatCount="indefinite"/>
    <animate attributeName="opacity" values="0.5;0.1;0.5" dur="3s" repeatCount="indefinite"/>
  </circle>

  <!-- Healing Particles -->
  <g fill="#10b981" opacity="0.8">
    <circle cx="50" cy="80" r="2">
      <animate attributeName="cy" values="80;70;80" dur="2s" repeatCount="indefinite"/>
    </circle>
    <circle cx="70" cy="85" r="1.5">
      <animate attributeName="cy" values="85;75;85" dur="2.5s" repeatCount="indefinite"/>
    </circle>
    <circle cx="60" cy="75" r="1">
      <animate attributeName="cy" values="75;65;75" dur="3s" repeatCount="indefinite"/>
    </circle>
  </g>

  <!-- Shadow Effect -->
  <ellipse cx="60" cy="115" rx="25" ry="5" fill="black" opacity="0.3"/>
</svg>