<svg width="120" height="120" viewBox="0 0 120 120" xmlns="http://www.w3.org/2000/svg">
  <defs>
    <linearGradient id="iceGradient" x1="0%" y1="0%" x2="100%" y2="100%">
      <stop offset="0%" style="stop-color:#60a5fa;stop-opacity:1" />
      <stop offset="50%" style="stop-color:#3b82f6;stop-opacity:1" />
      <stop offset="100%" style="stop-color:#1e40af;stop-opacity:1" />
    </linearGradient>
    <filter id="iceGlow">
      <feGaussianBlur stdDeviation="3" result="coloredBlur"/>
      <feMerge>
        <feMergeNode in="coloredBlur"/>
        <feMergeNode in="SourceGraphic"/>
      </feMerge>
    </filter>
    <filter id="frostEffect">
      <feTurbulence type="fractalNoise" baseFrequency="0.9" numOctaves="4" result="turbulence"/>
      <feColorMatrix in="turbulence" type="saturate" values="0"/>
      <feComponentTransfer>
        <feFuncA type="discrete" tableValues="0 .3 .5 .7 .8 1"/>
      </feComponentTransfer>
      <feComposite operator="over" in2="SourceGraphic"/>
      <feBlend mode="screen"/>
    </filter>
  </defs>

  <!-- Background Circle -->
  <circle cx="60" cy="60" r="55" fill="url(#iceGradient)"/>

  <!-- Character Body -->
  <g fill="white" filter="url(#iceGlow)">
    <!-- Head -->
    <circle cx="60" cy="40" r="15"/>

    <!-- Robe -->
    <path d="M45 55 Q60 50 75 55 L70 95 L50 95 Z" fill="#e0e7ff" stroke="#c7d2fe" stroke-width="1"/>

    <!-- Robe Details -->
    <path d="M50 65 L60 70 L70 65" stroke="#a5b4fc" stroke-width="1" fill="none"/>
    <path d="M48 75 L60 80 L72 75" stroke="#a5b4fc" stroke-width="1" fill="none"/>

    <!-- Arms -->
    <rect x="35" y="60" width="8" height="25" rx="2" transform="rotate(-10 39 72)" fill="#e0e7ff"/>
    <rect x="77" y="60" width="8" height="25" rx="2" transform="rotate(10 81 72)" fill="#e0e7ff"/>

    <!-- Mage Hat -->
    <path d="M50 30 L60 15 L70 30 L65 35 L55 35 Z" fill="#e0e7ff" stroke="#c7d2fe" stroke-width="1"/>

    <!-- Hat Star -->
    <path d="M60 18 L61 21 L64 21 L61.5 23 L62.5 26 L60 24 L57.5 26 L58.5 23 L56 21 L59 21 Z" fill="#fbbf24"/>
  </g>

  <!-- Ice Staff -->
  <g filter="url(#frostEffect)">
    <!-- Staff Shaft -->
    <rect x="85" y="40" width="3" height="50" fill="#8b5a3c"/>

    <!-- Ice Crystal -->
    <g transform="translate(86.5, 35)">
      <!-- Main Crystal -->
      <path d="M0 -8 L4 -4 L4 4 L0 8 L-4 4 L-4 -4 Z" fill="#bfdbfe" stroke="#60a5fa" stroke-width="1"/>

      <!-- Crystal Facets -->
      <path d="M0 -8 L0 8 M-4 -4 L4 4 M-4 4 L4 -4" stroke="#93c5fd" stroke-width="0.5"/>

      <!-- Crystal Glow -->
      <circle cx="0" cy="0" r="6" fill="none" stroke="#dbeafe" stroke-width="2" opacity="0.6">
        <animate attributeName="r" values="6;8;6" dur="3s" repeatCount="indefinite"/>
        <animate attributeName="opacity" values="0.6;0.2;0.6" dur="3s" repeatCount="indefinite"/>
      </circle>
    </g>

    <!-- Ice Particles -->
    <g fill="#bfdbfe" opacity="0.8">
      <circle cx="88" cy="30" r="1.5">
        <animate attributeName="cy" values="30;25;30" dur="4s" repeatCount="indefinite"/>
      </circle>
      <circle cx="84" cy="32" r="1">
        <animate attributeName="cy" values="32;28;32" dur="3s" repeatCount="indefinite"/>
      </circle>
      <circle cx="90" cy="28" r="1">
        <animate attributeName="cy" values="28;24;28" dur="3.5s" repeatCount="indefinite"/>
      </circle>
    </g>
  </g>

  <!-- Ice Magic Aura -->
  <g opacity="0.4">
    <circle cx="60" cy="60" r="45" fill="none" stroke="#93c5fd" stroke-width="1">
      <animate attributeName="r" values="45;50;45" dur="4s" repeatCount="indefinite"/>
      <animate attributeName="opacity" values="0.4;0.1;0.4" dur="4s" repeatCount="indefinite"/>
    </circle>
    <circle cx="60" cy="60" r="40" fill="none" stroke="#bfdbfe" stroke-width="0.5">
      <animate attributeName="r" values="40;43;40" dur="3s" repeatCount="indefinite"/>
      <animate attributeName="opacity" values="0.3;0.1;0.3" dur="3s" repeatCount="indefinite"/>
    </circle>
  </g>

  <!-- Eyes (Magical Glow) -->
  <g fill="#60a5fa" opacity="0.9">
    <circle cx="54" cy="38" r="2">
      <animate attributeName="opacity" values="0.9;0.4;0.9" dur="2.5s" repeatCount="indefinite"/>
    </circle>
    <circle cx="66" cy="38" r="2">
      <animate attributeName="opacity" values="0.9;0.4;0.9" dur="2.5s" begin="0.8s" repeatCount="indefinite"/>
    </circle>
  </g>

  <!-- Snowflakes -->
  <g fill="white" opacity="0.6">
    <g transform="translate(30, 20)">
      <path d="M0 -4 L0 4 M-3.5 -3.5 L3.5 3.5 M-3.5 3.5 L3.5 -3.5" stroke="white" stroke-width="1">
        <animateTransform attributeName="transform" type="rotate" from="0" to="360" dur="10s" repeatCount="indefinite"/>
      </path>
    </g>

    <g transform="translate(90, 30) scale(0.7)">
      <path d="M0 -4 L0 4 M-3.5 -3.5 L3.5 3.5 M-3.5 3.5 L3.5 -3.5" stroke="white" stroke-width="1">
        <animateTransform attributeName="transform" type="rotate" from="0" to="-360" dur="8s" repeatCount="indefinite"/>
      </path>
    </g>

    <g transform="translate(25, 85) scale(0.5)">
      <path d="M0 -4 L0 4 M-3.5 -3.5 L3.5 3.5 M-3.5 3.5 L3.5 -3.5" stroke="white" stroke-width="1">
        <animateTransform attributeName="transform" type="rotate" from="0" to="360" dur="12s" repeatCount="indefinite"/>
      </path>
    </g>
  </g>

  <!-- Frost Ground Effect -->
  <ellipse cx="60" cy="110" rx="20" ry="3" fill="#e0e7ff" opacity="0.7"/>
  <ellipse cx="60" cy="113" rx="25" ry="2" fill="#c7d2fe" opacity="0.5"/>

  <!-- Shadow Effect -->
  <ellipse cx="60" cy="115" rx="25" ry="5" fill="black" opacity="0.3"/>
</svg>