<svg width="120" height="120" viewBox="0 0 120 120" xmlns="http://www.w3.org/2000/svg">
  <defs>
    <linearGradient id="shadowGradient" x1="0%" y1="0%" x2="100%" y2="100%">
      <stop offset="0%" style="stop-color:#374151;stop-opacity:1" />
      <stop offset="100%" style="stop-color:#111827;stop-opacity:1" />
    </linearGradient>
    <filter id="glow">
      <feGaussianBlur stdDeviation="2" result="coloredBlur"/>
      <feMerge>
        <feMergeNode in="coloredBlur"/>
        <feMergeNode in="SourceGraphic"/>
      </feMerge>
    </filter>
  </defs>

  <!-- Background Circle -->
  <circle cx="60" cy="60" r="55" fill="url(#shadowGradient)"/>

  <!-- Character Body -->
  <g fill="#9ca3af" filter="url(#glow)">
    <!-- Head -->
    <circle cx="60" cy="40" r="15"/>

    <!-- Body -->
    <path d="M60 55 L50 75 L70 75 Z"/>
    <rect x="45" y="75" width="30" height="20" rx="3"/>

    <!-- Arms -->
    <rect x="35" y="60" width="10" height="25" rx="2" transform="rotate(-15 40 72)"/>
    <rect x="75" y="60" width="10" height="25" rx="2" transform="rotate(15 80 72)"/>

    <!-- Legs -->
    <rect x="48" y="95" width="8" height="20" rx="2"/>
    <rect x="64" y="95" width="8" height="20" rx="2"/>
  </g>

  <!-- Weapon (Dagger) -->
  <g fill="#ef4444">
    <rect x="85" y="65" width="3" height="20" transform="rotate(45 86.5 75)"/>
    <polygon points="83,60 90,60 86.5,55"/>
  </g>

  <!-- Eyes (Glowing) -->
  <g fill="#ef4444" opacity="0.9">
    <circle cx="54" cy="38" r="2">
      <animate attributeName="opacity" values="0.9;0.3;0.9" dur="2s" repeatCount="indefinite"/>
    </circle>
    <circle cx="66" cy="38" r="2">
      <animate attributeName="opacity" values="0.9;0.3;0.9" dur="2s" repeatCount="indefinite"/>
    </circle>
  </g>

  <!-- Shadow Effect -->
  <ellipse cx="60" cy="115" rx="20" ry="5" fill="black" opacity="0.3"/>
</svg>